<svg xmlns="http://www.w3.org/2000/svg" version="1.1" xmlns:xlink="http://www.w3.org/1999/xlink" xmlns:svgjs="http://svgjs.dev/svgjs" viewBox="0 0 800 800"><defs><linearGradient x1="50%" y1="0%" x2="50%" y2="100%" id="ccchaos-grad"><stop stop-color="hsl(265, 55%, 30%)" stop-opacity="1" offset="0%"></stop><stop stop-color="hsl(30, 100%, 70%)" stop-opacity="1" offset="100%"></stop></linearGradient></defs><g stroke-width="2" stroke="url(#ccchaos-grad)" fill="none" stroke-linecap="round"><path d="M377.99 120.14C387.34 116.07 396.63 112.36 405.82 109.35 415.02 106.84 424.15 105.61 433.19 105.83 442.26 107.14 451.27 110.02 460.23 114.36 469.25 119.63 478.24 126.03 487.21 133.26 496.28 140.78 505.38 148.64 514.49 156.57 523.74 164.09 533.05 171.32 542.41 178.16 551.94 184.22 561.52 189.81 571.15 194.98 580.93 199.4 590.73 203.56 600.51 207.59 610.36 211.17 620.13 214.87 629.71 218.81 639.25 222.63 648.5 226.9 657.33 231.68 665.94 236.58 673.99 242.08 681.35 248.18 688.27 254.5 694.34 261.41 699.44 268.85 703.91 276.51 707.3 284.63 709.51 293.13 711.01 301.79 711.3 310.75 710.38 319.93 708.8 329.18 706.09 338.59 702.31 348.08 698.12 357.59 693.06 367.13 687.26 376.65 681.43 386.18 675.28 395.46 668.98 404.48 663.05 413.52 657.2 422.33 651.54 430.96 646.5 439.67 641.76 448.28 637.35 456.85 633.66 465.63 630.28 474.5 627.19 483.56 624.74 492.97 622.48 502.72 620.33 512.87 618.65 523.49 616.93 534.6 615.09 546.19 613.51 558.19 611.66 570.58 609.48 583.21 607.36 595.9 604.79 608.47 601.73 620.63 598.6 632.16 594.9 642.7 590.63 651.88 586.23 659.67 581.22 665.6 575.64 669.41 569.9 671.48 563.59 671.41 556.75 669.3 549.77 666.06 542.29 661.49 534.37 656.13 526.33 651.2 517.89 646.7 509.08 643.3 500.21 642.05 491.01 642.85 481.52 645.96 472 651.78 462.23 659.72 452.23 669.29 442.23 680.17 432.02 691.19 421.64 701.38 411.26 710.2 400.95 716.29 390.75 719.17 380.54 719.13 370.44 715.64 360.46 709.06 350.47 700.22 340.6 689.38 330.87 677.33 321.12 665.02 311.5 652.93 302.03 641.66 292.55 631.92 283.22 623.77 274.06 617.36 264.9 613.01 255.91 610.25 247.13 608.77 238.36 608.75 229.8 609.32 221.51 610.06 213.25 611.19 205.26 611.79 197.59 611.55 189.98 610.87 182.72 608.98 175.83 605.82 169.05 601.85 162.67 596.58 156.73 590.13 150.93 582.93 145.59 574.75 140.74 565.76 136.05 556.26 131.86 546.21 128.21 535.77 124.71 525.08 121.74 514.2 119.33 503.26 117.05 492.23 115.31 481.24 114.13 470.39 113.05 459.53 112.51 448.84 112.51 438.37 112.56 427.92 113.13 417.68 114.23 407.69 115.32 397.7 116.88 388.19 118.86 379.12 120.78 370.03 123.1 361.36 125.78 353.08 128.36 344.74 131.27 336.73 134.5 329.04 137.58 321.2 140.97 313.58 144.63 306.12 148.14 298.42 151.92 290.77 155.96 283.11 159.85 275.09 164 266.94 168.42 258.62 172.7 249.88 177.26 240.91 182.09 231.72 186.82 222.18 191.84 212.49 197.16 202.75 202.4 192.91 207.96 183.25 213.82 173.96 219.65 165 225.81 156.73 232.26 149.35 238.72 142.74 245.49 137.28 252.56 133.09 259.64 129.81 267.02 127.8 274.68 127 282.36 126.77 290.31 127.38 298.51 128.6 306.72 129.64 315.16 130.73 323.82 131.59 332.48 131.5 341.35 130.8 350.38 129.39 359.42 126.82 368.63 123.67 377.98 120.15" stroke-dasharray="2 6" transform="rotate(0, 400, 400)" opacity="0.59"></path><path d="M379.12 131.32C388.14 127.3 397.12 123.62 406.04 120.58 414.97 117.98 423.86 116.58 432.69 116.52 441.56 117.48 450.4 119.93 459.2 123.79 468.07 128.6 476.93 134.54 485.79 141.39 494.74 148.61 503.72 156.29 512.73 164.17 521.85 171.78 531.03 179.24 540.23 186.4 549.58 192.9 558.96 198.98 568.35 204.65 577.85 209.6 587.34 214.24 596.75 218.67 606.21 222.58 615.52 226.47 624.62 230.48 633.63 234.24 642.32 238.31 650.57 242.76 658.58 247.2 666.02 252.14 672.77 257.58 679.09 263.15 684.6 269.26 689.17 275.88 693.17 282.64 696.14 289.88 698.02 297.54 699.25 305.31 699.37 313.44 698.36 321.85 696.77 330.33 694.14 339.04 690.51 347.92 686.52 356.83 681.73 365.86 676.24 375 670.72 384.14 664.88 393.16 658.88 402.05 653.2 410.97 647.56 419.8 642.05 428.58 637.1 437.44 632.38 446.34 627.95 455.31 624.15 464.47 620.62 473.83 617.35 483.43 614.67 493.33 612.15 503.58 609.75 514.2 607.8 525.16 605.83 536.51 603.77 548.18 601.99 560.07 599.99 572.13 597.7 584.18 595.53 596.05 592.96 607.56 589.96 618.4 586.94 628.46 583.43 637.36 579.4 644.82 572.93 653.04 557.13 657.82 547.84 654.61 541.36 651.12 534.4 646.68 526.99 641.77 519.5 637.53 511.59 633.9 503.31 631.44 494.97 631.06 486.3 632.62 477.32 636.27 468.31 642.37 459.03 650.3 449.51 659.62 439.98 670.05 430.22 680.53 420.27 690.2 410.32 698.62 400.41 704.53 390.58 707.52 380.76 707.86 371.01 705.02 361.36 699.26 351.71 691.35 342.15 681.43 332.72 670.18 323.28 658.47 313.96 646.69 304.78 635.43 295.6 625.33 286.56 616.53 277.68 609.21 268.82 603.72 260.12 599.72 251.63 597.02 243.16 595.81 234.91 595.36 226.91 595.33 218.96 595.93 211.27 596.32 203.9 596.21 196.61 595.94 189.64 594.76 183.05 592.54 176.57 589.74 170.47 585.8 164.81 580.77 159.29 575.09 154.21 568.41 149.6 560.89 145.15 552.87 141.19 544.19 137.75 535 134.45 525.52 131.67 515.71 129.42 505.7 127.3 495.56 125.71 485.34 124.65 475.13 123.69 464.89 123.25 454.72 123.34 444.68 123.47 434.65 124.11 424.76 125.25 415.05 126.39 405.34 127.97 396.03 129.96 387.11 131.89 378.15 134.2 369.55 136.86 361.26 139.41 352.9 142.28 344.8 145.46 336.92 148.49 328.89 151.82 320.99 155.4 313.18 158.83 305.13 162.53 297.06 166.47 288.93 170.26 280.48 174.31 271.89 178.6 263.13 182.76 254.04 187.18 244.77 191.85 235.37 196.42 225.74 201.26 216.08 206.38 206.51 211.42 196.99 216.75 187.78 222.37 179.07 227.94 170.8 233.82 163.3 239.98 156.76 246.13 150.99 252.58 146.36 259.31 142.94 266.04 140.35 273.07 138.91 280.36 138.54 287.65 138.61 295.22 139.38 303.02 140.64 310.84 141.62 318.89 142.57 327.16 143.25 335.43 142.99 343.91 142.13 352.57 140.61 361.24 137.99 370.09 134.82 379.11 131.32" stroke-dasharray="2 5" transform="rotate(4.04, 400, 400)" opacity="0.66"></path><path d="M380.86 142.5C389.56 138.53 398.24 134.89 406.89 131.84 415.56 129.17 424.21 127.6 432.83 127.28 441.48 127.9 450.13 129.94 458.76 133.33 467.45 137.64 476.15 143.1 484.86 149.51 493.65 156.37 502.48 163.78 511.32 171.51 520.27 179.12 529.25 186.69 538.25 194.08 547.35 200.93 556.47 207.45 565.57 213.59 574.74 219.07 583.86 224.22 592.86 229.11 601.87 233.45 610.71 237.69 619.29 241.92 627.76 245.82 635.87 249.89 643.54 254.22 650.94 258.44 657.78 263.03 663.94 268.04 669.69 273.07 674.66 278.58 678.74 284.55 682.29 290.6 684.88 297.11 686.45 304.04 687.44 311.05 687.4 318.45 686.33 326.18 684.74 333.97 682.19 342.05 678.73 350.38 674.94 358.73 670.41 367.31 665.22 376.1 660 384.88 654.47 393.67 648.76 402.46 643.34 411.27 637.91 420.12 632.57 429.02 627.72 438.01 623.05 447.13 618.61 456.4 614.74 465.83 611.1 475.51 607.67 485.45 604.79 495.62 602.05 506.1 599.42 516.87 597.22 527.85 595.02 539.09 592.75 550.48 590.76 561.89 588.6 573.27 586.2 584.42 583.93 595.2 581.34 605.4 578.37 614.76 575.42 623.25 572.03 630.5 568.18 636.27 562.08 642.18 547.29 643.61 538.62 639.7 532.59 636.19 526.09 632.04 519.17 627.71 512.17 624.21 504.77 621.46 497 619.92 489.17 620.36 481 622.6 472.52 626.72 464.01 633.01 455.22 640.89 446.17 649.94 437.11 659.92 427.81 669.87 418.3 679.02 408.79 687.04 399.3 692.78 389.86 695.84 380.43 696.52 371.05 694.27 361.75 689.3 352.46 682.28 343.25 673.28 334.14 662.88 325.04 651.85 316.05 640.51 307.18 629.41 298.32 619.15 289.6 609.88 281.03 601.84 272.49 595.38 264.11 590.27 255.93 586.4 247.79 583.98 239.86 582.44 232.17 581.48 224.55 581.33 217.19 581.23 210.14 580.91 203.17 580.69 196.52 579.85 190.23 578.22 184.06 576.24 178.26 573.31 172.89 569.41 167.64 565.01 162.83 559.68 158.48 553.49 154.28 546.86 150.55 539.52 147.32 531.59 144.22 523.36 141.63 514.69 139.54 505.7 137.59 496.55 136.14 487.21 135.2 477.75 134.36 468.24 134.02 458.69 134.18 449.16 134.4 439.63 135.09 430.15 136.27 420.75 137.45 411.36 139.05 402.26 141.04 393.45 142.97 384.62 145.27 376.05 147.9 367.71 150.42 359.3 153.26 351.06 156.38 342.95 159.37 334.71 162.63 326.53 166.14 318.36 169.5 309.99 173.12 301.55 176.97 293.03 180.67 284.25 184.62 275.34 188.79 266.29 192.83 257.02 197.12 247.64 201.65 238.22 206.07 228.71 210.75 219.29 215.68 210.08 220.54 201.05 225.66 192.46 231.05 184.46 236.39 176.97 242.01 170.32 247.91 164.64 253.77 159.72 259.93 155.9 266.35 153.21 272.76 151.25 279.44 150.31 286.39 150.3 293.33 150.6 300.53 151.48 307.98 152.71 315.42 153.6 323.1 154.39 331 154.88 338.9 154.45 347.02 153.43 355.33 151.8 363.65 149.13 372.16 145.97 380.85 142.5" stroke-dasharray="9 9" transform="rotate(8.08, 400, 400)" opacity="0.80"></path><path d="M383.17 153.67C391.55 149.78 399.94 146.18 408.32 143.13 416.72 140.4 425.12 138.69 433.51 138.14 441.93 138.43 450.37 140.06 458.8 142.98 467.29 146.79 475.8 151.74 484.32 157.66 492.91 164.1 501.53 171.17 510.17 178.65 518.89 186.14 527.63 193.72 536.36 201.23 545.18 208.34 553.98 215.19 562.73 221.75 571.52 227.72 580.22 233.37 588.78 238.75 597.31 243.58 605.64 248.25 613.68 252.83 621.59 257.02 629.13 261.28 636.2 265.68 643.02 269.88 649.27 274.34 654.86 279.13 660.07 283.85 664.52 288.97 668.14 294.49 671.27 300.02 673.51 305.98 674.81 312.35 675.58 318.75 675.41 325.55 674.29 332.72 672.71 339.91 670.25 347.45 666.95 355.31 663.37 363.18 659.09 371.35 654.2 379.82 649.28 388.29 644.05 396.86 638.63 405.53 633.46 414.22 628.25 423.04 623.09 432 618.36 441.03 613.76 450.24 609.34 459.66 605.43 469.2 601.7 478.98 598.16 489.01 595.1 499.18 592.17 509.59 589.34 520.2 586.92 530.88 584.49 541.66 582.03 552.43 579.84 563.06 577.5 573.47 574.98 583.45 572.61 592.94 569.96 601.7 566.99 609.5 562.41 619.23 551.24 630.14 544.55 630.95 539.87 630.05 534.75 627.89 529.18 624.71 523.55 621.36 517.48 617.65 511 613.99 504.46 611.28 497.52 609.41 490.23 608.74 482.88 609.94 475.2 612.77 467.2 617.29 459.18 623.72 450.86 631.5 442.28 640.25 433.69 649.76 424.85 659.19 415.79 667.85 406.73 675.47 397.67 681.01 388.64 684.14 379.61 685.11 370.63 683.4 361.71 679.18 352.79 673.02 343.94 664.93 335.19 655.4 326.45 645.12 317.8 634.33 309.27 623.53 300.76 613.29 292.38 603.75 284.15 595.18 275.95 587.93 267.91 581.86 260.07 576.92 252.28 573.35 244.69 570.69 237.34 568.72 230.06 567.65 223.05 566.84 216.32 566.05 209.69 565.58 203.37 564.73 197.4 563.34 191.55 561.82 186.06 559.55 180.98 556.49 176.03 553.07 171.49 548.82 167.4 543.77 163.45 538.36 159.95 532.23 156.93 525.48 154.04 518.45 151.63 510.9 149.72 502.94 147.92 494.83 146.61 486.4 145.79 477.75 145.06 469.04 144.81 460.17 145.05 451.22 145.33 442.25 146.08 433.22 147.29 424.17 148.5 415.12 150.11 406.26 152.1 397.59 154.03 388.9 156.31 380.36 158.9 371.97 161.4 363.52 164.2 355.16 167.26 346.86 170.2 338.43 173.4 330.02 176.84 321.57 180.14 312.96 183.68 304.26 187.44 295.48 191.06 286.52 194.91 277.46 198.98 268.32 202.91 259.05 207.09 249.77 211.48 240.54 215.77 231.35 220.3 222.36 225.06 213.69 229.74 205.31 234.68 197.46 239.86 190.27 244.98 183.65 250.37 177.88 256.02 173.07 261.63 168.98 267.5 165.92 273.64 163.9 279.75 162.49 286.12 161.98 292.75 162.26 299.36 162.73 306.23 163.65 313.34 164.82 320.43 165.58 327.77 166.19 335.32 166.48 342.87 165.87 350.64 164.7 358.62 162.96 366.6 160.26 374.78 157.11 383.16 153.68" stroke-dasharray="1 11" transform="rotate(12.12, 400, 400)" opacity="0.71"></path><path d="M385.97 164.85C394.05 161.03 402.14 157.49 410.25 154.45 418.37 151.69 426.51 149.85 434.66 149.08 442.84 149.07 451.04 150.3 459.25 152.76 467.5 156.07 475.78 160.49 484.08 165.88 492.43 171.85 500.8 178.5 509.18 185.65 517.62 192.92 526.07 200.39 534.49 207.9 542.96 215.14 551.4 222.23 559.76 229.1 568.13 235.49 576.38 241.6 584.46 247.44 592.49 252.78 600.28 257.92 607.77 262.92 615.11 267.51 622.07 272.08 628.57 276.7 634.81 281.06 640.49 285.6 645.54 290.35 650.23 294.98 654.2 299.91 657.39 305.17 660.14 310.39 662.05 315.99 663.1 321.96 663.69 327.93 663.4 334.28 662.25 341.01 660.69 347.74 658.33 354.85 655.19 362.31 651.81 369.77 647.79 377.59 643.18 385.77 638.55 393.94 633.61 402.29 628.48 410.8 623.56 419.33 618.58 428.05 613.61 436.94 609.01 445.9 604.51 455.06 600.13 464.42 596.21 473.86 592.43 483.52 588.79 493.37 585.6 503.27 582.52 513.32 579.51 523.45 576.89 533.53 574.27 543.57 571.62 553.43 569.24 563.04 566.74 572.26 564.09 580.91 561.6 589 558.88 596.27 555.89 602.52 551.34 610 540.51 617.09 534.13 616.64 529.7 615.24 524.87 612.88 519.64 609.78 514.35 606.75 508.66 603.6 502.58 600.67 496.45 598.78 489.95 597.76 483.1 597.9 476.21 599.79 468.99 603.14 461.46 607.98 453.9 614.48 446.05 622.12 437.94 630.54 429.81 639.59 421.43 648.5 412.82 656.67 404.21 663.9 395.58 669.25 386.98 672.4 378.37 673.63 369.79 672.42 361.26 668.89 352.75 663.56 344.29 656.36 335.91 647.72 327.54 638.23 319.26 628.09 311.1 617.72 302.96 607.66 294.95 598.05 287.08 589.15 279.24 581.3 271.57 574.44 264.09 568.59 256.66 563.97 249.43 560.23 242.44 557.23 235.52 555.16 228.86 553.5 222.48 552.04 213.21 550.47 196.47 546.07 189.1 542.53 182.31 538.05 171.03 525.17 166.59 516.87 163.91 510.91 161.69 504.4 159.93 497.41 158.29 490.28 157.12 482.76 156.41 474.92 155.79 467.01 155.63 458.85 155.94 450.5 156.28 442.13 157.07 433.59 158.31 424.92 159.54 416.26 161.16 407.67 163.14 399.17 165.06 390.66 167.32 382.2 169.88 373.81 172.34 365.37 175.09 356.95 178.1 348.53 180.99 340.02 184.13 331.46 187.5 322.86 190.74 314.15 194.2 305.35 197.87 296.49 201.41 287.53 205.17 278.51 209.14 269.48 212.98 260.44 217.04 251.46 221.31 242.63 225.47 233.95 229.86 225.56 234.47 217.59 238.99 209.98 243.75 202.96 248.75 196.66 253.68 190.93 258.85 186.04 264.27 182.09 269.64 178.78 275.27 176.42 281.13 175 286.97 174.06 293.06 173.9 299.39 174.39 305.7 174.96 312.26 175.86 319.04 176.93 325.82 177.53 332.83 177.95 340.06 178.03 347.28 177.24 354.72 175.94 362.37 174.1 370.02 171.37 377.89 168.24 385.96 164.86" stroke-dasharray="5 3" transform="rotate(16.16, 400, 400)" opacity="0.36"></path><path d="M389.19 176.03C396.96 172.3 404.76 168.82 412.59 165.81 420.42 163.02 428.29 161.08 436.18 160.11 444.09 159.82 452.03 160.68 459.98 162.69 467.97 165.49 475.99 169.38 484.01 174.22 492.08 179.66 500.17 185.83 508.24 192.57 516.36 199.52 524.47 206.77 532.54 214.16 540.63 221.41 548.66 228.62 556.58 235.69 564.5 242.38 572.27 248.86 579.85 255.12 587.35 260.92 594.6 266.52 601.53 271.96 608.31 277.01 614.7 281.97 620.62 286.92 626.3 291.58 631.44 296.32 635.97 301.2 641.93 308.37 649.69 323.82 651.33 332.26 651.75 337.96 651.38 344.01 650.2 350.43 648.68 356.83 646.42 363.6 643.45 370.74 640.27 377.87 636.49 385.38 632.16 393.28 627.81 401.17 623.17 409.27 618.32 417.56 613.65 425.87 608.9 434.39 604.13 443.09 599.68 451.82 595.28 460.76 590.98 469.87 587.07 479 583.26 488.3 579.57 497.7 576.28 507.09 573.06 516.51 569.92 525.9 567.12 535.14 564.33 544.2 561.52 552.96 558.96 561.37 556.31 569.28 553.54 576.53 549.53 586.1 540.53 599.24 535.38 602.37 529.94 603.21 517.31 599.05 510.07 595.04 505.08 592.46 499.73 589.95 494.02 587.8 488.26 586.71 482.16 586.51 475.73 587.41 469.26 589.89 462.47 593.69 455.38 598.76 448.27 605.28 440.88 612.74 433.22 620.82 425.55 629.41 417.62 637.8 409.47 645.49 401.31 652.34 393.13 657.47 384.95 660.63 376.79 662.09 368.63 661.33 360.51 658.44 352.4 653.89 344.35 647.56 336.36 639.8 328.4 631.15 320.51 621.72 312.73 611.91 304.99 602.18 297.35 592.67 289.87 583.63 282.42 575.4 275.13 567.95 268.03 561.35 260.98 555.81 254.13 551.09 247.51 547.1 240.96 544.03 234.67 541.44 228.65 539.18 219.91 536.65 204.18 531.49 197.27 528.15 190.93 524.24 180.41 513.29 176.31 506.2 173.83 501.12 171.79 495.48 170.2 489.35 168.71 483.1 167.67 476.41 167.08 469.33 166.56 462.2 166.48 454.73 166.84 446.98 167.25 439.21 168.07 431.18 169.33 422.93 170.58 414.69 172.2 406.42 174.16 398.14 176.07 389.86 178.3 381.56 180.81 373.25 183.24 364.91 185.94 356.53 188.89 348.11 191.73 339.64 194.81 331.1 198.11 322.5 201.28 313.85 204.67 305.14 208.26 296.4 211.72 287.63 215.4 278.87 219.26 270.17 223.01 261.54 226.97 253.06 231.12 244.82 235.16 236.81 239.42 229.16 243.89 222.01 248.27 215.26 252.87 209.13 257.69 203.74 262.44 198.9 267.42 194.87 272.63 191.73 280.48 188.27 297.3 185.99 306.26 186.66 312.29 187.27 318.56 188.11 325.05 189.03 331.52 189.45 338.22 189.66 345.14 189.53 352.05 188.58 359.18 187.14 366.52 185.21 373.86 182.47 381.41 179.36 389.18 176.03" stroke-dasharray="4 10" transform="rotate(20.200000000000003, 400, 400)" opacity="0.63"></path><path d="M392.72 187.21C400.18 183.57 407.69 180.17 415.22 177.2 422.77 174.4 430.35 172.38 437.95 171.23 445.57 170.68 453.23 171.2 460.9 172.77 468.59 175.09 476.31 178.43 484.03 182.72 491.78 187.6 499.54 193.24 507.27 199.48 515.03 206.03 522.76 212.95 530.42 220.11 538.1 227.24 545.69 234.42 553.15 241.56 560.58 248.44 567.85 255.17 574.91 261.74 581.87 267.93 588.58 273.95 594.95 279.8 601.17 285.28 607 290.67 612.37 295.99 617.51 301.01 622.13 306.06 626.17 311.17 631.46 318.62 638.2 334.21 639.51 342.54 639.79 348.12 639.34 354.01 638.16 360.22 636.68 366.4 634.53 372.93 631.72 379.81 628.74 386.68 625.19 393.91 621.14 401.53 617.07 409.14 612.71 416.96 608.14 424.96 603.73 432.97 599.2 441.18 594.64 449.55 590.35 457.93 586.08 466.47 581.87 475.12 578 483.76 574.2 492.48 570.49 501.22 567.12 509.87 563.81 518.47 560.56 526.9 557.62 535.13 554.69 543.07 551.74 550.6 549.03 557.75 546.24 564.32 543.35 570.18 534.62 582.42 519.64 588.72 513.72 586.88 507.48 584.12 493.34 577.69 485.43 575.42 480.01 575.11 474.27 575.66 468.22 577.24 462.15 580.25 455.77 584.4 449.1 589.64 442.42 596.12 435.46 603.36 428.24 611.08 421.01 619.2 413.54 627.09 405.84 634.31 398.14 640.78 390.4 645.7 382.66 648.85 374.93 650.49 367.21 650.13 359.51 647.82 351.83 644.01 344.19 638.52 336.62 631.63 329.07 623.83 321.6 615.18 314.23 606.01 306.89 596.74 299.66 587.49 292.57 578.51 285.53 570.1 278.63 562.26 271.92 555.11 265.27 548.83 258.81 543.28 252.58 538.4 246.42 534.37 240.5 530.86 234.85 527.75 226.66 524.08 211.94 517.51 205.51 513.97 199.6 510.2 189.87 500.34 186.09 494.09 182.89 487.18 178.72 470.75 177.78 461.37 177.36 454.92 177.35 448.09 177.77 440.92 178.23 433.73 179.08 426.22 180.35 418.42 181.61 410.62 183.22 402.71 185.16 394.73 187.05 386.75 189.24 378.69 191.71 370.57 194.1 362.43 196.75 354.22 199.63 345.95 202.42 337.66 205.43 329.3 208.65 320.9 211.76 312.49 215.07 304.06 218.58 295.64 221.97 287.26 225.56 278.95 229.33 270.77 232.99 262.74 236.84 254.92 240.88 247.43 244.82 240.2 248.96 233.41 253.29 227.15 257.53 221.3 261.99 216.09 266.64 211.6 273.63 206.01 288.58 199.43 296.57 198.33 304.71 198.21 322.06 199.98 331.27 201.09 337.46 201.33 343.87 201.32 350.49 200.98 357.1 199.86 363.93 198.3 370.97 196.3 378 193.54 385.25 190.47 392.71 187.21" stroke-dasharray="4 1" transform="rotate(24.24, 400, 400)" opacity="0.29"></path><path d="M396.47 198.39C403.62 194.85 410.82 191.54 418.05 188.62 425.29 185.83 432.57 183.74 439.87 182.44 447.18 181.67 454.52 181.86 461.87 183.03 469.25 184.87 476.63 187.68 484.01 191.4 491.41 195.7 498.8 200.77 506.15 206.47 513.51 212.53 520.83 219.02 528.06 225.84 535.29 232.72 542.41 239.75 549.39 246.82 556.32 253.74 563.08 260.59 569.6 267.34 576.03 273.81 582.18 280.14 588 286.33 593.67 292.21 598.96 297.98 603.8 303.66 608.42 309.07 612.56 314.46 616.14 319.86 620.81 327.69 626.61 343.72 627.64 352.09 627.79 357.66 627.29 363.48 626.11 369.58 624.69 375.63 622.65 381.99 620.01 388.65 617.21 395.31 613.9 402.29 610.12 409.61 606.32 416.92 602.24 424.42 597.95 432.06 593.78 439.7 589.5 447.5 585.15 455.4 581.03 463.3 576.91 471.29 572.81 479.32 569 487.31 565.23 495.29 561.52 503.19 558.12 510.97 554.75 518.59 551.43 525.95 548.38 533.08 545.33 539.83 542.26 546.09 537.97 554.63 529.21 567.53 524.59 571.54 514.8 573.87 497.88 569.42 491.29 566.61 484.4 564.68 469.09 564.6 460.7 567.4 454.98 570.84 448.99 575.26 442.72 580.61 436.44 586.99 429.9 593.98 423.11 601.32 416.32 608.98 409.29 616.37 402.04 623.13 394.79 629.23 387.5 633.92 380.2 637.04 372.92 638.83 365.63 638.82 358.37 637.06 351.13 633.93 343.92 629.23 336.77 623.2 329.65 616.25 322.6 608.41 315.65 599.95 308.73 591.27 301.92 582.42 295.25 573.66 288.62 565.27 282.14 557.25 275.84 549.75 269.59 542.94 263.54 536.72 257.7 531.1 251.93 526.22 246.4 521.86 241.12 517.91 233.48 513.03 219.79 504.65 213.83 500.59 208.36 496.58 199.39 487.04 195.94 481.28 193.02 475.02 189.31 460.18 188.52 451.64 188.19 445.78 188.25 439.51 188.72 432.88 189.22 426.23 190.1 419.22 191.37 411.88 192.63 404.53 194.23 397.04 196.14 389.43 198 381.82 200.16 374.09 202.57 366.27 204.91 358.46 207.51 350.55 210.32 342.58 213.05 334.63 215.99 326.62 219.14 318.59 222.18 310.6 225.42 302.63 228.84 294.72 232.15 286.91 235.65 279.22 239.33 271.73 242.9 264.43 246.65 257.41 250.58 250.76 254.42 244.41 258.44 238.52 262.64 233.18 268.92 226.09 282.32 215.87 289.46 212.85 296.72 211.05 312.21 210.62 320.44 211.49 325.96 211.99 331.7 212.57 337.64 213.11 343.56 213.13 349.69 212.91 356.03 212.37 362.35 211.09 368.89 209.42 375.63 207.35 382.36 204.6 389.31 201.57 396.46 198.39" stroke-dasharray="5 5" transform="rotate(28.28, 400, 400)" opacity="0.37"></path><path d="M400.32 209.56C407.16 206.14 414.05 202.93 420.96 200.07 427.88 197.31 434.83 195.18 441.81 193.75 448.79 192.78 455.8 192.68 462.8 193.46 469.82 194.86 476.85 197.16 483.85 200.31 490.87 204.03 497.86 208.5 504.8 213.61 511.74 219.11 518.62 225.1 525.4 231.47 532.15 237.99 538.79 244.72 545.26 251.59 551.68 258.4 557.91 265.23 563.9 272.02 569.79 278.63 575.41 285.15 580.69 291.56 585.83 297.73 590.59 303.8 594.93 309.79 599.06 315.54 602.73 321.24 605.89 326.92 609.99 335.17 614.95 351.76 615.73 360.26 615.78 365.9 615.23 371.72 614.08 377.74 612.71 383.73 610.78 389.95 608.31 396.43 605.7 402.89 602.62 409.62 599.1 416.63 595.56 423.63 591.75 430.75 587.73 437.96 583.82 445.17 579.78 452.47 575.65 459.8 571.72 467.12 567.75 474.45 563.78 481.73 560.06 488.96 556.35 496.09 552.68 503.05 549.27 509.88 545.87 516.46 542.51 522.71 537.82 531.51 528.66 546.14 524.08 551.62 514.95 557.8 500.03 558.85 494.41 557.01 488.59 555.12 475.69 552.24 468.58 552.2 463.74 553.32 458.63 555.18 453.27 557.86 447.89 561.65 442.25 566.27 436.36 571.64 430.47 577.88 424.32 584.59 417.95 591.55 411.58 598.73 404.98 605.64 398.17 611.96 391.37 617.68 384.53 622.15 377.68 625.2 370.83 627.11 363.99 627.41 357.17 626.13 350.37 623.63 343.6 619.69 336.89 614.47 330.21 608.38 323.59 601.37 317.07 593.68 310.59 585.66 304.21 577.35 297.96 568.96 291.76 560.76 285.7 552.77 279.82 545.12 273.98 537.98 268.34 531.31 262.9 525.12 257.53 519.55 252.38 514.45 247.49 509.76 240.4 503.7 227.74 493.33 222.24 488.55 217.21 484.04 209 474.18 205.86 468.57 203.22 462.64 199.94 448.84 199.3 440.96 199.05 435.55 199.18 429.76 199.69 423.6 200.23 417.43 201.12 410.9 202.39 404.03 203.65 397.15 205.23 390.1 207.1 382.92 208.93 375.74 211.03 368.43 213.39 361.03 215.68 353.65 218.21 346.18 220.95 338.66 223.62 331.18 226.49 323.67 229.55 316.19 232.52 308.77 235.67 301.41 239.01 294.17 242.24 287.07 245.65 280.13 249.23 273.45 252.71 266.98 256.37 260.83 260.19 255.09 265.88 247.16 277.99 234.44 284.43 229.86 290.95 226.45 304.83 223.08 312.2 222.88 319.71 223.15 335.64 224.54 344.07 225.06 349.73 224.86 355.6 224.42 361.66 223.68 367.7 222.27 373.95 220.49 380.4 218.37 386.83 215.64 393.48 212.67 400.31 209.57" stroke-dasharray="4 0" transform="rotate(32.32, 400, 400)" opacity="0.36"></path><path d="M404.17 220.74C410.69 217.44 417.24 214.33 423.82 211.55 430.41 208.84 437.03 206.68 443.65 205.16 450.28 204.01 456.93 203.65 463.57 204.09 470.21 205.06 476.85 206.87 483.46 209.48 490.07 212.61 496.64 216.47 503.14 220.97 509.63 225.87 516.05 231.29 522.35 237.13 528.62 243.18 534.75 249.51 540.72 256.04 546.62 262.6 552.33 269.25 557.79 275.93 563.15 282.52 568.24 289.07 573 295.57 577.62 301.9 581.89 308.16 585.75 314.34 589.43 320.34 592.67 326.28 595.43 332.18 597.98 337.92 600.03 343.67 601.55 349.42 603.21 357.92 603.46 375.19 602.05 384.08 600.75 390.02 598.93 396.12 596.62 402.41 594.21 408.68 591.35 415.15 588.08 421.81 584.8 428.48 581.25 435.19 577.5 441.92 573.84 448.64 570.04 455.37 566.14 462.06 562.4 468.73 558.6 475.33 554.78 481.81 551.17 488.22 547.55 494.45 543.93 500.45 540.55 506.31 537.16 511.86 533.78 517.03 529.03 524.24 519.68 535.73 515.01 539.78 505.73 543.96 490.84 543.97 485.34 542.53 479.68 541.34 467.29 540.4 460.52 541.4 455.93 543.12 451.11 545.51 446.04 548.61 440.98 552.66 435.67 557.4 430.15 562.74 424.61 568.79 418.85 575.2 412.88 581.75 406.91 588.47 400.73 594.9 394.37 600.78 388 606.13 381.6 610.37 375.19 613.35 368.79 615.34 362.39 615.91 356.02 615.06 349.66 613.13 343.34 609.88 337.07 605.45 330.83 600.19 324.66 594.01 318.58 587.12 312.53 579.84 306.59 572.16 300.78 564.28 295.01 556.44 289.38 548.65 283.91 541.05 278.5 533.8 273.26 526.87 268.23 520.32 263.26 514.25 258.5 508.58 253.99 503.27 247.45 496.19 235.81 483.86 230.77 478.28 226.17 473.08 218.7 462.45 215.87 456.74 213.5 450.87 210.62 437.64 210.12 430.22 210.05 422.44 211.7 405.19 213.41 395.73 214.66 389.32 216.21 382.74 218.03 376.04 219.83 369.34 221.88 362.53 224.17 355.64 226.4 348.78 228.86 341.86 231.52 334.91 234.12 328.02 236.91 321.14 239.88 314.33 242.77 307.6 245.84 300.97 249.08 294.51 252.23 288.2 255.55 282.1 259.03 276.29 262.42 270.7 265.98 265.45 269.69 260.62 275.21 254.02 286.95 243.77 293.18 240.25 299.48 237.7 312.86 235.44 319.95 235.47 327.15 235.76 342.41 236.73 350.48 236.91 355.89 236.5 361.5 235.85 367.28 234.92 373.06 233.38 379.02 231.52 385.17 229.36 391.31 226.66 397.64 223.75 404.16 220.75" stroke-dasharray="4 8" transform="rotate(36.36, 400, 400)" opacity="0.54"></path><path d="M407.89 231.92C414.08 228.74 420.3 225.76 426.53 223.06 432.77 220.41 439.03 218.25 445.29 216.65 457.82 214.48 470.36 215.24 482.73 218.94 495.09 224.54 507.21 232.75 518.87 242.94 530.39 254.13 541.28 266.44 551.25 279.27 560.85 292.02 569.29 304.8 576.28 317.39 582.62 329.49 587.28 341.43 590.04 353.25 592.01 364.7 592.02 376.3 590.03 388.13 588.8 394 587.1 399.97 584.96 406.05 582.72 412.11 580.08 418.3 577.06 424.6 574.03 430.9 570.74 437.17 567.26 443.37 563.85 449.58 560.28 455.71 556.61 461.73 549.69 473.68 542.52 484.98 535.29 495.25 528.82 505.01 522.27 513.29 515.66 519.68 509.7 525.2 503.48 528.61 496.93 529.89 490.77 530.7 484.06 530.07 476.73 528.61 469.54 528.43 461.58 528.99 452.85 531.14 444.12 536.41 434.55 544.07 424.18 553.89 418.99 559.71 413.6 565.79 408.02 571.93 402.43 578.18 396.66 584.15 390.72 589.6 384.78 594.59 378.81 598.59 372.85 601.48 366.89 603.53 360.93 604.31 355 603.84 343.19 600.08 331.53 591.84 320.23 580.23 309.05 566.89 298.3 552.21 288.17 537.35 278.23 523.31 268.99 510.22 260.64 498.35 252.55 488.06 245.43 478.74 239.43 470.05 233.73 462.38 229.2 454.65 225.96 446.5 223 438.69 221.31 430.01 220.98 420.32 221.01 412.92 222.74 396.71 224.43 387.91 225.66 381.94 227.18 375.85 228.95 369.65 230.7 363.47 232.69 357.21 234.9 350.9 239.18 338.38 244.3 325.82 250.13 313.59 255.66 301.75 261.89 290.58 268.71 280.54 275.21 271.28 282.35 263.54 290.06 257.66 297.5 252.75 305.58 249.72 314.26 248.55 322.75 247.69 331.91 247.94 341.71 248.82 351.38 248.51 361.76 247.72 372.81 246.08 378.31 244.43 383.98 242.5 389.83 240.32 395.67 237.66 401.69 234.83 407.88 231.92" stroke-dasharray="8 10" transform="rotate(40.400000000000006, 400, 400)" opacity="0.82"></path><path d="M411.37 243.1C423.07 236.87 434.86 231.72 446.61 228.25 458.37 225.79 470.09 225.93 481.58 228.71 493.05 233.19 504.23 240.13 514.9 249.04 525.43 259.02 535.31 270.28 544.27 282.26 552.89 294.42 560.39 306.82 566.53 319.16 572.1 331.24 576.13 343.21 578.43 355.02 580.07 366.56 579.95 378.12 578.02 389.69 575.6 401.18 571.57 412.86 566.04 424.68 560.47 436.49 554.04 447.86 547.07 458.61 540.54 469.23 533.7 478.99 526.72 487.57 520.39 495.74 513.92 502.41 507.35 507.34 501.36 511.69 495.11 514.26 488.58 515.16 482.41 516 475.77 515.88 468.61 515.38 461.6 516.31 453.94 518.11 445.61 521.4 437.32 527.42 428.29 535.41 418.57 545.08 408.83 556.53 398.4 568.11 387.35 578.42 376.31 587.16 365.2 591.97 354.22 592.49 343.29 589.76 332.52 582.96 322.11 572.96 311.81 561.17 301.93 547.79 292.64 533.83 283.53 520.2 275.08 507.07 267.48 494.81 260.11 483.74 253.64 473.53 248.23 463.99 243.08 455.38 239.01 446.94 236.14 438.38 233.51 430.2 232.07 421.47 231.89 412.06 231.86 402.7 233.03 392.48 235.45 381.41 237.85 370.34 241.29 358.97 245.6 347.56 249.74 336.27 254.68 325.13 260.29 314.47 265.65 304.18 271.67 294.69 278.25 286.36 284.55 278.7 291.46 272.5 298.89 267.97 306.09 264.15 313.88 261.93 322.21 261.21 330.38 260.5 339.15 260.61 348.51 261.12 357.76 260.38 367.64 259.16 378.13 257.15 388.57 253.18 399.67 248.37 411.36 243.1" stroke-dasharray="3 8" transform="rotate(44.44, 400, 400)" opacity="0.31"></path><path d="M414.53 254.27C425.53 248.35 436.57 243.4 447.52 239.93 458.48 237.25 469.35 236.86 479.94 238.8 490.51 242.23 500.74 247.93 510.43 255.53 519.98 264.22 528.87 274.26 536.86 285.17 544.54 296.46 551.17 308.16 556.52 319.96 561.38 331.69 564.84 343.39 566.74 354.93 568.09 366.32 567.87 377.63 566.03 388.81 563.79 399.94 560.09 411.05 555.02 422.03 549.92 433.02 543.99 443.33 537.51 452.83 531.39 462.21 524.9 470.6 518.23 477.76 512.09 484.62 505.76 490.06 499.31 493.97 493.34 497.57 487.13 499.74 480.67 500.66 474.54 501.84 467.99 502.45 461.02 502.99 454.21 505 446.83 507.92 438.9 512.17 431.02 518.75 422.5 526.9 413.4 536.29 404.3 547.07 394.59 557.77 384.36 567.25 374.12 575.36 363.87 580.05 353.76 581 343.69 579.18 333.81 573.71 324.28 565.26 314.85 555.05 305.82 543.1 297.37 530.29 289.07 517.41 281.4 504.64 274.53 492.38 267.86 480.95 262.03 470.19 257.18 460.07 252.55 450.72 248.93 441.66 246.41 432.7 244.1 424.13 242.89 415.29 242.84 406.07 242.92 396.93 244.11 387.23 246.47 376.96 248.81 366.7 252.12 356.38 256.25 346.22 260.23 336.16 264.98 326.42 270.36 317.31 275.53 308.51 281.32 300.58 287.64 293.81 293.73 287.57 300.38 282.66 307.52 279.23 314.46 276.23 321.94 274.55 329.92 274.05 337.75 273.34 346.14 273.2 355.04 273.26 363.86 272.1 373.25 270.46 383.17 268.14 393.06 264.08 403.53 259.34 414.53 254.27" stroke-dasharray="11 8" transform="rotate(48.48, 400, 400)" opacity="0.45"></path><path d="M417.25 265.45C427.53 259.85 437.8 255.13 447.94 251.7 458.08 248.88 468.07 248.04 477.76 249.25 487.41 251.7 496.69 256.23 505.42 262.54 514.01 269.88 521.94 278.6 529.02 288.29 535.81 298.46 541.62 309.2 546.25 320.18 550.48 331.25 553.43 342.37 554.98 353.38 556.09 364.34 555.79 375.18 554.05 385.81 551.99 396.41 548.62 406.84 544 416.96 539.35 427.09 533.91 436.39 527.93 444.77 522.23 453.06 516.13 460.29 509.8 466.35 503.9 472.21 497.77 476.81 491.5 480.12 485.63 483.34 479.52 485.48 473.18 486.73 467.13 488.46 460.73 489.92 453.97 491.53 447.36 494.53 440.29 498.41 432.75 503.42 425.27 510.36 417.26 518.51 408.76 527.53 400.27 537.58 391.26 547.41 381.82 556.07 372.38 563.56 362.96 568.09 353.71 569.39 344.49 568.35 335.47 564.09 326.81 557.11 318.22 548.46 310.04 538.03 302.4 526.53 294.89 514.69 287.99 502.62 281.82 490.76 275.82 479.38 270.61 468.46 266.29 458.07 262.17 448.26 258.97 438.8 256.79 429.58 254.77 420.7 253.77 411.78 253.84 402.74 254.01 393.79 255.21 384.55 257.49 375.05 259.76 365.55 262.93 356.23 266.86 347.26 270.67 338.37 275.2 329.97 280.34 322.28 285.29 314.83 290.83 308.29 296.88 302.85 302.72 297.77 309.1 293.88 315.93 291.25 322.58 288.83 329.74 287.45 337.35 286.97 344.82 286.11 352.81 285.62 361.25 285.22 369.61 283.64 378.49 281.61 387.84 279.02 397.15 274.93 406.97 270.3 417.25 265.45" stroke-dasharray="9 8" transform="rotate(52.52, 400, 400)" opacity="0.69"></path><path d="M419.47 276.63C429 271.37 438.48 266.9 447.79 263.56 457.09 260.67 466.21 259.47 474.99 260.04 483.73 261.64 492.07 265.08 499.87 270.15 507.53 276.15 514.55 283.51 520.76 291.87 526.73 300.77 531.78 310.33 535.76 320.26 539.41 330.38 541.91 340.66 543.17 350.89 544.07 361.15 543.72 371.31 542.1 381.21 540.22 391.12 537.17 400.77 532.98 410.02 528.77 419.28 523.82 427.65 518.32 435.06 513.05 442.42 507.37 448.77 501.42 454.03 495.8 459.2 489.94 463.31 483.9 466.39 478.2 469.55 472.26 471.93 466.11 473.73 460.2 476.12 453.99 478.45 447.48 481.05 441.11 484.91 434.35 489.55 427.21 495.12 420.14 502.22 412.62 510.22 404.71 518.77 396.81 528.07 388.49 537.03 379.82 544.89 371.14 551.77 362.54 556.1 354.12 557.65 345.73 557.29 337.56 554.1 329.73 548.47 321.97 541.34 314.61 532.44 307.76 522.37 301.02 511.78 294.85 500.71 289.36 489.58 284.01 478.65 279.38 467.96 275.58 457.65 271.93 447.74 269.13 438.15 267.26 428.87 265.52 419.86 264.71 410.97 264.87 402.16 265.12 393.44 266.32 384.67 268.51 375.88 270.69 367.1 273.7 358.71 277.42 350.83 281.05 343 285.35 335.78 290.21 329.33 294.92 323.04 300.2 317.64 305.94 313.26 311.52 309.09 317.59 305.94 324.08 303.82 330.43 301.72 337.23 300.43 344.45 299.81 351.55 298.7 359.1 297.82 367.06 296.93 374.96 294.97 383.3 292.62 392.05 289.81 400.77 285.72 409.93 281.24 419.47 276.63" stroke-dasharray="5 4" transform="rotate(56.56, 400, 400)" opacity="0.64"></path><path d="M421.11 287.81C429.88 282.9 438.55 278.71 447.02 275.5 455.48 272.6 463.72 271.14 471.6 271.19 479.44 272.04 486.87 274.51 493.77 278.43 500.54 283.17 506.71 289.17 512.11 296.17 517.31 303.7 521.67 311.96 525.06 320.67 528.19 329.63 530.3 338.84 531.3 348.09 532.03 357.42 531.66 366.69 530.16 375.73 528.46 384.8 525.73 393.6 521.96 401.98 518.18 410.36 513.7 417.88 508.7 424.51 503.87 431.11 498.61 436.8 493.07 441.55 487.79 446.31 482.25 450.21 476.51 453.33 471.03 456.65 465.32 459.45 459.42 461.91 453.71 464.98 447.74 468.13 441.53 471.58 435.43 476.13 429.01 481.32 422.3 487.22 415.64 494.31 408.62 502.01 401.3 510.01 393.98 518.52 386.33 526.63 378.41 533.71 370.49 539.99 362.68 544.07 355.07 545.81 347.48 545.99 340.13 543.74 333.12 539.35 326.16 533.63 319.58 526.24 313.49 517.65 307.49 508.45 302.01 498.59 297.17 488.47 292.44 478.34 288.37 468.23 285.05 458.36 281.85 448.7 279.42 439.3 277.84 430.22 276.35 421.32 275.71 412.62 275.96 404.15 276.27 395.74 277.44 387.46 279.53 379.37 281.6 371.27 284.45 363.73 287.94 356.81 291.36 349.91 295.41 343.69 299.98 338.25 304.44 332.89 309.41 328.38 314.83 324.76 320.11 321.22 325.85 318.54 331.98 316.69 337.98 314.71 344.41 313.34 351.2 312.45 357.9 311.02 365 309.72 372.45 308.38 379.85 306.08 387.63 303.45 395.76 300.49 403.86 296.46 412.33 292.15 421.11 287.81" stroke-dasharray="5 9" transform="rotate(60.599999999999994, 400, 400)" opacity="0.97"></path><path d="M422.13 298.98C430.12 294.45 437.98 290.56 445.6 287.52 453.22 284.68 460.58 283.04 467.59 282.68 474.55 282.92 481.1 284.55 487.14 287.45 493.07 291.01 498.43 295.73 503.08 301.4 507.57 307.56 511.31 314.45 514.18 321.85 516.84 329.53 518.61 337.53 519.4 345.64 519.99 353.88 519.61 362.12 518.24 370.19 516.73 378.31 514.29 386.2 510.94 393.73 507.57 401.25 503.55 408.02 499.04 414.01 494.66 419.99 489.86 425.22 484.75 429.7 479.85 434.24 474.67 438.13 469.28 441.48 464.1 445.08 458.68 448.36 453.09 451.47 447.65 455.16 441.98 458.99 436.1 463.12 430.33 468.13 424.29 473.65 418.02 479.67 411.79 486.57 405.29 493.85 398.55 501.24 391.82 508.95 384.83 516.21 377.64 522.54 370.45 528.2 363.41 532.02 356.58 533.86 349.77 534.47 343.21 533.03 336.98 529.73 330.79 525.31 324.97 519.35 319.6 512.23 314.3 504.48 309.49 495.98 305.26 487.07 301.11 478 297.56 468.78 294.7 459.65 291.92 450.6 289.84 441.7 288.51 433.07 287.27 424.55 286.77 416.25 287.08 408.24 287.44 400.28 288.58 392.55 290.55 385.13 292.5 377.7 295.16 370.91 298.42 364.8 301.62 358.69 305.39 353.27 309.65 348.61 313.82 343.96 318.47 340.07 323.53 336.95 328.49 333.81 333.86 331.36 339.59 329.56 345.22 327.54 351.23 325.97 357.56 324.74 363.82 322.97 370.44 321.27 377.35 319.52 384.22 316.94 391.43 314.12 398.9 311.07 406.37 307.14 414.13 303.04 422.13 298.98" stroke-dasharray="4 7" transform="rotate(64.64, 400, 400)" opacity="0.87"></path><path d="M422.49 310.16C429.7 306.02 436.73 302.45 443.51 299.62 450.29 296.89 456.79 295.17 462.94 294.5 471.91 294.74 487.44 301.54 493.71 307.74 497.56 312.58 500.72 318.14 503.13 324.22 505.38 330.56 506.85 337.28 507.48 344.2 507.94 351.23 507.58 358.36 506.35 365.41 505.02 372.5 502.88 379.46 499.92 386.15 496.95 392.85 493.39 398.94 489.36 404.41 485.43 409.89 481.09 414.8 476.45 419.15 471.96 423.59 467.18 427.59 462.2 431.22 457.37 435.12 452.31 438.85 447.08 442.52 441.98 446.7 436.66 451.03 431.17 455.6 425.77 460.86 420.15 466.49 414.35 472.42 408.59 478.98 402.61 485.74 396.47 492.44 390.33 499.33 384 505.77 377.53 511.36 371.06 516.42 364.76 519.94 358.7 521.82 352.64 522.75 346.84 521.97 341.35 519.61 335.9 516.34 330.8 511.71 326.12 506 321.48 499.7 317.3 492.61 313.64 485.02 310.04 477.2 306.98 469.1 304.53 460.96 302.15 452.79 300.39 444.66 299.3 436.74 298.26 428.85 297.9 421.16 298.25 413.76 298.64 406.39 299.73 399.28 301.56 392.52 303.39 385.76 305.85 379.66 308.85 374.22 313.55 366.37 325.23 353.98 332.05 349.39 339.13 345.25 354.92 339.08 363.54 336.57 369.32 334.48 375.42 332.42 381.76 330.33 388.07 327.55 394.66 324.61 401.46 321.53 408.26 317.76 415.29 313.92 422.49 310.16" stroke-dasharray="2 5" transform="rotate(68.68, 400, 400)" opacity="0.09"></path><path d="M422.2 321.34C434.99 313.66 447.02 308.56 457.7 306.64 468.26 305.87 477.24 308.96 484.04 315.29 490.45 322.9 494.44 332.97 495.54 344.29 496.18 356.05 494.02 368.31 488.9 380.1 483.75 391.89 476.56 402.01 468.16 410.48 460.17 419.34 451.07 427.39 441.36 435.12 432.04 444.44 421.9 454.59 411.28 465.41 400.79 477.91 389.6 490.17 378.08 500.18 366.57 508.56 355.8 511.44 346.24 509.01 336.75 503.76 328.61 494.18 322.31 482.03 316.18 468.83 312 454.53 310.18 440.48 308.53 426.42 309.22 412.9 312.58 400.74 315.93 388.57 321.49 378.78 328.68 371.36 335.66 363.73 344.25 358.11 353.94 354.19 363.44 349.23 374.15 344.9 385.64 340.78 397.06 334.47 409.4 327.76 422.2 321.34" stroke-dasharray="4 2" transform="rotate(72.72, 400, 400)" opacity="0.49"></path><path d="M421.25 332.52C432.42 325.71 442.79 321.09 451.89 319.07 460.89 317.74 468.46 319.56 474.1 324.11 479.46 329.57 482.75 337.28 483.59 346.36 484.12 355.78 482.27 365.99 477.88 376.24 473.46 386.49 467.23 395.79 459.85 404.07 452.76 412.71 444.62 421.01 435.89 429.19 427.44 438.53 418.28 448.45 408.75 458.59 399.33 469.76 389.38 480.42 379.28 489 369.17 496.36 359.84 499.29 351.64 497.95 343.49 494.51 336.57 487.38 331.27 477.85 326.08 467.33 322.6 455.5 321.17 443.54 319.85 431.46 320.56 419.65 323.6 408.87 326.63 398.1 331.62 389.3 338.03 382.43 344.31 375.32 352.01 369.73 360.68 365.42 369.22 360.17 378.8 355.38 389.02 350.86 399.19 344.66 410.08 338.35 421.25 332.52" stroke-dasharray="9 4" transform="rotate(76.76, 400, 400)" opacity="0.09"></path><path d="M419.67 343.69C429.21 337.78 437.97 333.72 445.56 331.75 456.21 330.58 469.68 340.71 471.66 350.62 472.1 357.93 470.55 366.22 466.86 375 463.16 383.77 457.86 392.19 451.53 400.11 445.39 408.3 438.28 416.48 430.63 424.61 423.17 433.51 415.08 442.76 406.73 451.88 398.45 461.57 389.79 470.62 381.09 477.83 372.38 484.14 364.44 486.98 357.54 486.46 350.66 484.47 344.87 479.45 340.5 472.31 336.2 464.35 333.36 455.01 332.26 445.25 331.22 435.33 331.93 425.36 334.62 416.03 337.31 406.7 341.68 398.83 347.28 392.42 352.8 385.78 359.55 380.23 367.13 375.61 374.63 370.24 383.01 365.23 391.88 360.55 400.73 354.66 410.13 348.87 419.67 343.69" stroke-dasharray="3 8" transform="rotate(80.80000000000001, 400, 400)" opacity="0.82"></path><path d="M417.52 354.87C425.43 349.89 432.61 346.44 438.77 344.65 447.4 343.14 458.19 349.75 459.74 357.13 460.1 362.61 458.85 369.18 455.84 376.5 452.82 383.83 448.45 391.24 443.19 398.52 438.03 405.97 432.02 413.59 425.52 421.17 419.14 429.2 412.24 437.38 405.13 445.24 398.07 453.34 390.74 460.77 383.45 466.65 372.86 473.22 355.88 472.02 350.01 465.31 346.53 459.64 344.26 452.66 343.45 445.06 342.66 437.32 343.33 429.26 345.64 421.42 347.95 413.59 351.67 406.68 356.43 400.78 361.13 394.7 366.88 389.32 373.31 384.61 379.69 379.37 386.79 374.42 394.27 369.84 401.73 364.47 409.6 359.33 417.52 354.87" stroke-dasharray="3 10" transform="rotate(84.84, 400, 400)" opacity="0.56"></path><path d="M414.84 366.05C432.41 356.37 449.02 364.69 444.82 380.6 440.12 392.39 431.13 405.72 420.53 418.62 410.18 432.36 398.05 446.04 386.3 455.47 374.54 463.36 365.24 463.19 359.76 456.84 354.34 448.97 352.85 437.05 356.66 424.46 360.45 411.86 368.77 400.93 379.22 392.32 389.6 382.37 402.26 372.96 414.84 366.05" stroke-dasharray="3 1" transform="rotate(88.88, 400, 400)" opacity="0.34"></path><path d="M411.73 377.23C424.75 369.88 436.88 375.04 433.8 386.82 430.35 395.75 423.62 406.36 415.6 416.63 407.7 427.19 398.44 437.41 389.56 444.29 377.21 450.59 365.25 438.27 367.68 424.8 370.62 415.34 376.96 406.3 384.89 398.7 392.8 390.42 402.36 382.69 411.73 377.23" stroke-dasharray="9 7" transform="rotate(92.92, 400, 400)" opacity="0.48"></path><path d="M408.28 388.4C420.67 379.85 427.24 382.44 422.78 394.5 418.3 406.55 405.07 423.98 393.12 433.12 381.16 440.76 374.67 434.97 378.7 422.41 382.71 409.84 395.88 395.57 408.28 388.4" stroke-dasharray="8 3" transform="rotate(96.96, 400, 400)" opacity="0.26"></path></g></svg>