<svg id="visual5" viewBox="0 0 900 600" preserveAspectRatio="none" xmlns="http://www.w3.org/2000/svg" xmlns:xlink="http://www.w3.org/1999/xlink" version="1.1">
<path d="M0 552L21.5 553.8C43 555.7 86 559.3 128.8 562.7C171.7 566 214.3 569 257.2 569.3C300 569.7 343 567.3 385.8 559.5C428.7 551.7 471.3 538.3 514.2 538.3C557 538.3 600 551.7 642.8 557C685.7 562.3 728.3 559.7 771.2 559.5C814 559.3 857 561.7 878.5 562.8L900 564L900 601L878.5 601C857 601 814 601 771.2 601C728.3 601 685.7 601 642.8 601C600 601 557 601 514.2 601C471.3 601 428.7 601 385.8 601C343 601 300 601 257.2 601C214.3 601 171.7 601 128.8 601C86 601 43 601 21.5 601L0 601Z" fill="#fa7268"></path>
</svg>