<svg id="visual2" viewBox="0 0 900 600" preserveAspectRatio="none" xmlns="http://www.w3.org/2000/svg" xmlns:xlink="http://www.w3.org/1999/xlink" version="1.1">
<path d="M0 448L21.5 440.2C43 432.3 86 416.7 128.8 409.3C171.7 402 214.3 403 257.2 411.2C300 419.3 343 434.7 385.8 444C428.7 453.3 471.3 456.7 514.2 449.3C557 442 600 424 642.8 419.7C685.7 415.3 728.3 424.7 771.2 432.2C814 439.7 857 445.3 878.5 448.2L900 451L900 601L878.5 601C857 601 814 601 771.2 601C728.3 601 685.7 601 642.8 601C600 601 557 601 514.2 601C471.3 601 428.7 601 385.8 601C343 601 300 601 257.2 601C214.3 601 171.7 601 128.8 601C86 601 43 601 21.5 601L0 601Z" fill="#d53867"></path>
</svg>