<svg id="visual1" viewBox="0 0 900 600" preserveAspectRatio="none" xmlns="http://www.w3.org/2000/svg" xmlns:xlink="http://www.w3.org/1999/xlink" version="1.1">
<path d="M0 431L21.5 433.3C43 435.7 86 440.3 128.8 435C171.7 429.7 214.3 414.3 257.2 413.8C300 413.3 343 427.7 385.8 431.8C428.7 436 471.3 430 514.2 420.7C557 411.3 600 398.7 642.8 392.8C685.7 387 728.3 388 771.2 396.2C814 404.3 857 419.7 878.5 427.3L900 435L900 601L878.5 601C857 601 814 601 771.2 601C728.3 601 685.7 601 642.8 601C600 601 557 601 514.2 601C471.3 601 428.7 601 385.8 601C343 601 300 601 257.2 601C214.3 601 171.7 601 128.8 601C86 601 43 601 21.5 601L0 601Z" fill="#c62368"></path>
</svg>