<svg id="visual" viewBox="0 0 900 600" width="900" height="600" xmlns="http://www.w3.org/2000/svg" xmlns:xlink="http://www.w3.org/1999/xlink" version="1.1">

<defs>
    <filter id="bbblurry-filter" x="-100%" y="-100%" width="400%" height="400%" filterUnits="objectBoundingBox" primitiveUnits="userSpaceOnUse" color-interpolation-filters="sRGB">
	    <feGaussianBlur stdDeviation="3" x="0%" y="0%" width="100%" height="100%" in="SourceGraphic" edgeMode="none" result="blur">
        </feGaussianBlur>
    </filter>
</defs>
<g filter="url(#bbblurry-filter)">
<path d="M0 444L21.5 437C43 430 86 416 128.8 414.5C171.7 413 214.3 424 257.2 428.8C300 433.7 343 432.3 385.8 427.3C428.7 422.3 471.3 413.7 514.2 414.7C557 415.7 600 426.3 642.8 432.2C685.7 438 728.3 439 771.2 433.5C814 428 857 416 878.5 410L900 404L900 601L878.5 601C857 601 814 601 771.2 601C728.3 601 685.7 601 642.8 601C600 601 557 601 514.2 601C471.3 601 428.7 601 385.8 601C343 601 300 601 257.2 601C214.3 601 171.7 601 128.8 601C86 601 43 601 21.5 601L0 601Z" fill="#141c2b"></path>
<path d="M0 474L21.5 476.5C43 479 86 484 128.8 481.2C171.7 478.3 214.3 467.7 257.2 462.3C300 457 343 457 385.8 456.7C428.7 456.3 471.3 455.7 514.2 458.8C557 462 600 469 642.8 469.5C685.7 470 728.3 464 771.2 464.8C814 465.7 857 473.3 878.5 477.2L900 481L900 601L878.5 601C857 601 814 601 771.2 601C728.3 601 685.7 601 642.8 601C600 601 557 601 514.2 601C471.3 601 428.7 601 385.8 601C343 601 300 601 257.2 601C214.3 601 171.7 601 128.8 601C86 601 43 601 21.5 601L0 601Z" fill="#18202f"></path>
<path d="M0 493L21.5 497.3C43 501.7 86 510.3 128.8 510.8C171.7 511.3 214.3 503.7 257.2 504.2C300 504.7 343 513.3 385.8 516.8C428.7 520.3 471.3 518.7 514.2 512.5C557 506.3 600 495.7 642.8 494.3C685.7 493 728.3 501 771.2 506C814 511 857 513 878.5 514L900 515L900 601L878.5 601C857 601 814 601 771.2 601C728.3 601 685.7 601 642.8 601C600 601 557 601 514.2 601C471.3 601 428.7 601 385.8 601C343 601 300 601 257.2 601C214.3 601 171.7 601 128.8 601C86 601 43 601 21.5 601L0 601Z" fill="#1b2433"></path>
</g>
<path d="M0 562L21.5 559C43 556 86 550 128.8 548.3C171.7 546.7 214.3 549.3 257.2 547.5C300 545.7 343 539.3 385.8 540.8C428.7 542.3 471.3 551.7 514.2 557.3C557 563 600 565 642.8 563.7C685.7 562.3 728.3 557.7 771.2 554.8C814 552 857 551 878.5 550.5L900 550L900 601L878.5 601C857 601 814 601 771.2 601C728.3 601 685.7 601 642.8 601C600 601 557 601 514.2 601C471.3 601 428.7 601 385.8 601C343 601 300 601 257.2 601C214.3 601 171.7 601 128.8 601C86 601 43 601 21.5 601L0 601Z" fill="#1f2937"></path>
</svg>