<svg id="visual4" viewBox="0 0 900 600" preserveAspectRatio="none" xmlns="http://www.w3.org/2000/svg" xmlns:xlink="http://www.w3.org/1999/xlink" version="1.1">
<path d="M0 493L21.5 495C43 497 86 501 128.8 500.8C171.7 500.7 214.3 496.3 257.2 493.3C300 490.3 343 488.7 385.8 490.5C428.7 492.3 471.3 497.7 514.2 504.7C557 511.7 600 520.3 642.8 520.3C685.7 520.3 728.3 511.7 771.2 506.3C814 501 857 499 878.5 498L900 497L900 601L878.5 601C857 601 814 601 771.2 601C728.3 601 685.7 601 642.8 601C600 601 557 601 514.2 601C471.3 601 428.7 601 385.8 601C343 601 300 601 257.2 601C214.3 601 171.7 601 128.8 601C86 601 43 601 21.5 601L0 601Z" fill="#ef5f67"></path>
</svg>