<svg id="visual3" viewBox="0 0 900 600" preserveAspectRatio="none" xmlns="http://www.w3.org/2000/svg" xmlns:xlink="http://www.w3.org/1999/xlink" version="1.1">
<path d="M0 483L21.5 486.5C43 490 86 497 128.8 489.3C171.7 481.7 214.3 459.3 257.2 452.7C300 446 343 455 385.8 464.2C428.7 473.3 471.3 482.7 514.2 484C557 485.3 600 478.7 642.8 476C685.7 473.3 728.3 474.7 771.2 480.2C814 485.7 857 495.3 878.5 500.2L900 505L900 601L878.5 601C857 601 814 601 771.2 601C728.3 601 685.7 601 642.8 601C600 601 557 601 514.2 601C471.3 601 428.7 601 385.8 601C343 601 300 601 257.2 601C214.3 601 171.7 601 128.8 601C86 601 43 601 21.5 601L0 601Z" fill="#e34c67"></path>
</svg>